<?xml version="1.0" encoding="UTF-8" standalone="no"?>
<svg
   xmlns:dc="http://purl.org/dc/elements/1.1/"
   xmlns:cc="http://creativecommons.org/ns#"
   xmlns:rdf="http://www.w3.org/1999/02/22-rdf-syntax-ns#"
   xmlns:svg="http://www.w3.org/2000/svg"
   xmlns="http://www.w3.org/2000/svg"
   width="24"
   height="24"
   viewBox="0 0 6.35 6.35"
   version="1.1"
   id="svg4947">
  <defs
     id="defs4941">
    <clipPath
       clipPathUnits="userSpaceOnUse"
       id="clipPath1160">
      <path
         id="path1162"
         d="m 16.722698,267.62312 c -0.172809,0.006 -0.341005,0.0248 -0.50396,0.0559 -0.162965,0.0312 -0.320481,0.0747 -0.471956,0.13059 -0.151561,0.0559 -0.296887,0.12395 -0.435429,0.20398 -0.09792,0.0566 -0.192364,0.11914 -0.283175,0.18749 -0.128459,0.0965 -0.24951,0.20448 -0.362695,0.32358 -0.113094,0.11926 -0.218176,0.24948 -0.314853,0.39017 -0.09689,0.14052 -0.185248,0.29135 -0.26475,0.45191 -0.07929,0.16062 -0.149634,0.33076 -0.210764,0.50978 -0.0613,0.17895 -0.113297,0.36656 -0.15581,0.56215 -0.04234,0.19566 -0.07513,0.39902 -0.09827,0.60934 -0.02318,0.21027 -0.03666,0.42724 -0.04041,0.65007 4.24e-4,0.11901 0.0036,0.23952 0.0094,0.36141 -1.272656,-1.53394 -2.759712,-2.30397 -4.0989136,-2.12252 -0.05229,0.0274 -0.1036942,0.0554 -0.1541942,0.084 -0.1634109,0.10156 -0.316072,0.20988 -0.4574109,0.32455 -0.1412782,0.11463 -0.2710672,0.23546 -0.38888,0.36205 -0.117964,0.12656 -0.223801,0.25872 -0.3171151,0.39599 -0.09312,0.13727 -0.1736,0.27947 -0.241151,0.42605 -0.06762,0.14662 -0.122206,0.29744 -0.1635689,0.45192 -0.02929,0.10931 -0.05193,0.22037 -0.06788,0.33296 -0.02255,0.15904 -0.03171,0.32098 -0.02748,0.48521 0.0043,0.16428 0.021979,0.33064 0.05301,0.49846 0.03092,0.16791 0.07515,0.33708 0.1325359,0.50687 0.0575,0.16963 0.128061,0.33966 0.21141,0.50946 0.08333,0.16982 0.179347,0.33921 0.2877,0.50751 0.108313,0.1683 0.2288241,0.33531 0.3610801,0.5004 0.1322279,0.16514 0.27604,0.32816 0.4309038,0.48845 0.1279522,0.13021 0.2630781,0.25843 0.4050422,0.38435 -0.3504642,-0.0389 -0.691886,-0.0567 -1.021496,-0.0534 -1.5681391,0.028 -2.801697,0.53749 -3.4847241,1.43947 -0.01767,0.0564 -0.03426,0.11269 -0.04978,0.16874 -0.04377,0.1873 -0.07516,0.37179 -0.09407,0.55277 -0.01878,0.181 -0.02504,0.35826 -0.01875,0.53111 0.0061,0.17281 0.0248,0.341 0.05592,0.50396 0.03116,0.16297 0.07475,0.32048 0.130595,0.47196 0.05588,0.15156 0.123956,0.29689 0.203977,0.43543 0.05661,0.0979 0.119147,0.19236 0.1874899,0.28317 0.09649,0.12846 0.2044819,0.24951 0.323582,0.3627 0.119166,0.11308 0.249278,0.21816 0.3898501,0.31485 0.140635,0.0968 0.29157,0.18503 0.452238,0.26443 0.1605079,0.0794 0.3305378,0.14985 0.5094531,0.21109 0.1790599,0.0612 0.366785,0.11308 0.5624697,0.15548 0.1956491,0.0425 0.3990171,0.0754 0.6093421,0.0986 0.210276,0.0232 0.4272391,0.0367 0.650073,0.0404 0.1190101,-5.3e-4 0.2395191,-0.004 0.3614021,-0.01 -1.5340211,1.27262 -2.3041711,2.75968 -2.1228371,4.09891 0.0275,0.0524 0.05562,0.10392 0.08437,0.15452 0.1015569,0.16341 0.2098778,0.31607 0.324552,0.4574 0.1145249,0.14127 0.2352511,0.27106 0.3617259,0.38889 0.126669,0.11787 0.25894,0.2236 0.396314,0.31679 0.137164,0.0932 0.2792511,0.1738 0.42573,0.24147 0.1467181,0.0676 0.2976541,0.12223 0.4522401,0.16357 0.1093129,0.0291 0.220368,0.0517 0.3329548,0.0676 0.15904,0.0226 0.3209801,0.0319 0.4852101,0.0278 0.164283,-0.004 0.330646,-0.0222 0.498465,-0.0534 0.167807,-0.0309 0.336866,-0.0752 0.506545,-0.13254 0.169626,-0.0574 0.339656,-0.12784 0.509456,-0.21108 0.169936,-0.0833 0.339428,-0.17933 0.507839,-0.2877 0.168304,-0.10842 0.335313,-0.22904 0.500403,-0.36141 0.165138,-0.13222 0.328157,-0.27603 0.488443,-0.4309 0.08374,-0.0843 0.166635,-0.17164 0.248586,-0.26183 -0.184678,1.98437 0.322298,3.58025 1.397445,4.39889 0.05644,0.0177 0.112693,0.0343 0.168741,0.0498 0.187309,0.0437 0.371796,0.075 0.552771,0.0937 0.180996,0.0189 0.358254,0.0253 0.531113,0.0191 0.172809,-0.006 0.341005,-0.0248 0.50396,-0.0559 0.162965,-0.0312 0.320481,-0.0748 0.471957,-0.1306 0.151561,-0.0559 0.296886,-0.12396 0.435429,-0.20397 0.09791,-0.0566 0.192364,-0.11915 0.283174,-0.1875 0.12846,-0.0965 0.249509,-0.20448 0.362696,-0.32358 0.113094,-0.11927 0.218176,-0.24948 0.314853,-0.39017 0.09689,-0.14052 0.185248,-0.29135 0.264748,-0.45192 0.07929,-0.16062 0.149635,-0.33076 0.210765,-0.50978 0.06118,-0.17895 0.113075,-0.36657 0.155487,-0.56214 0.04245,-0.19565 0.07536,-0.39902 0.09859,-0.60934 0.02318,-0.21028 0.03666,-0.42724 0.04041,-0.65007 -4.23e-4,-0.11901 -0.0036,-0.23952 -0.0094,-0.36141 1.272553,1.53379 2.759471,2.30381 4.09859,2.12252 0.0524,-0.0274 0.103912,-0.0554 0.154518,-0.0841 0.163411,-0.10156 0.316071,-0.20988 0.45741,-0.32455 0.141278,-0.11463 0.271067,-0.23547 0.38888,-0.36205 0.117852,-0.12657 0.223581,-0.25873 0.316793,-0.39599 0.09323,-0.13727 0.17382,-0.27947 0.241474,-0.42606 0.06761,-0.14661 0.122207,-0.29744 0.163569,-0.45191 0.02929,-0.10931 0.05193,-0.22037 0.06788,-0.33296 0.02254,-0.15904 0.03171,-0.32098 0.02748,-0.48521 -0.0043,-0.16428 -0.02198,-0.33064 -0.05301,-0.49846 -0.03102,-0.16792 -0.07536,-0.33708 -0.13286,-0.50687 -0.05739,-0.16963 -0.127844,-0.33966 -0.211087,-0.50945 -0.08333,-0.16984 -0.179348,-0.33922 -0.2877,-0.50752 -0.108313,-0.1683 -0.228823,-0.33531 -0.361079,-0.50041 -0.132336,-0.16513 -0.276258,-0.32816 -0.431227,-0.48844 -0.127845,-0.13021 -0.262863,-0.25843 -0.404719,-0.38435 2.032156,0.21328 3.671961,-0.29112 4.506219,-1.38614 0.01767,-0.0564 0.03426,-0.11269 0.04978,-0.16874 0.04367,-0.1873 0.07495,-0.37179 0.09375,-0.55276 0.01887,-0.18089 0.02523,-0.35804 0.01907,-0.5308 -0.0061,-0.17292 -0.02479,-0.34122 -0.05592,-0.50428 -0.03118,-0.16285 -0.07477,-0.32026 -0.130597,-0.47163 -0.05588,-0.15156 -0.123954,-0.29689 -0.203975,-0.43543 -0.0566,-0.098 -0.119136,-0.19259 -0.18749,-0.2835 -0.09649,-0.12846 -0.204483,-0.24951 -0.323582,-0.3627 -0.119166,-0.11308 -0.249278,-0.21816 -0.389849,-0.31485 -0.140636,-0.0968 -0.291571,-0.18503 -0.452238,-0.26443 -0.16052,-0.0793 -0.330551,-0.14962 -0.509455,-0.21076 -0.179048,-0.0613 -0.366773,-0.1133 -0.56247,-0.15581 -0.195659,-0.0423 -0.399026,-0.0751 -0.609341,-0.0983 -0.210267,-0.0233 -0.427228,-0.0369 -0.650072,-0.0407 -0.05487,10e-4 -0.11004,0.002 -0.165508,0.004 1.432276,-1.24597 2.140268,-2.67804 1.9625,-3.96961 -0.0275,-0.0524 -0.05563,-0.10392 -0.08437,-0.15452 -0.101559,-0.16341 -0.209878,-0.31607 -0.324552,-0.45741 -0.11453,-0.14115 -0.235256,-0.27083 -0.361726,-0.38855 -0.126664,-0.11799 -0.258934,-0.22382 -0.396314,-0.31712 -0.137168,-0.0931 -0.279255,-0.17358 -0.425731,-0.24116 -0.146713,-0.0677 -0.297649,-0.12244 -0.452238,-0.16389 -0.109314,-0.0292 -0.220368,-0.0517 -0.332956,-0.0676 -0.159041,-0.0226 -0.32098,-0.032 -0.485211,-0.0278 -0.164283,0.004 -0.330646,0.0222 -0.498464,0.0534 -0.167808,0.031 -0.336867,0.0752 -0.506546,0.13254 -0.169628,0.0575 -0.339659,0.12806 -0.509454,0.21141 -0.169933,0.0832 -0.339424,0.17911 -0.507839,0.28738 -0.168304,0.10842 -0.335313,0.22903 -0.500404,0.3614 -0.165139,0.13223 -0.328157,0.27604 -0.488443,0.4309 -0.102383,0.10218 -0.203508,0.2088 -0.303216,0.3197 0.233512,-2.06548 -0.269166,-3.73609 -1.378373,-4.58089 -0.05644,-0.0176 -0.112694,-0.0343 -0.168742,-0.0498 -0.18742,-0.0437 -0.372016,-0.075 -0.553094,-0.0937 -0.180882,-0.0189 -0.358034,-0.0252 -0.53079,-0.0191 z"
         style="opacity:1;fill:none;fill-opacity:1;stroke:#000000;stroke-width:0.12951972;stroke-miterlimit:4;stroke-dasharray:none;stroke-opacity:1" />
    </clipPath>
    <filter
       style="color-interpolation-filters:sRGB"
       id="filter1619"
       x="-0.05566271"
       width="1.1113254"
       y="-0.10191156"
       height="1.2038231">
      <feGaussianBlur
         stdDeviation="1.3054101"
         id="feGaussianBlur1621" />
    </filter>
    <filter
       style="color-interpolation-filters:sRGB"
       id="filter1905"
       x="-0.071895637"
       width="1.1437913"
       y="-0.36263207"
       height="1.7252641">
      <feGaussianBlur
         stdDeviation="1.9441894"
         id="feGaussianBlur1907" />
    </filter>
    <filter
       style="color-interpolation-filters:sRGB"
       id="filter1779"
       x="-0.027132196"
       width="1.0542644"
       y="-0.053478871"
       height="1.1069577">
      <feGaussianBlur
         stdDeviation="0.46498773"
         id="feGaussianBlur1781" />
    </filter>
    <filter
       style="color-interpolation-filters:sRGB"
       id="filter1589"
       x="-0.028747827"
       width="1.0574957"
       y="-0.14531867"
       height="1.2906373">
      <feGaussianBlur
         stdDeviation="0.71425062"
         id="feGaussianBlur1591" />
    </filter>
    <filter
       style="color-interpolation-filters:sRGB"
       id="filter1571"
       x="-0.02176475"
       width="1.0435295"
       y="-0.055076063"
       height="1.1101521">
      <feGaussianBlur
         stdDeviation="1.0511835"
         id="feGaussianBlur1573" />
    </filter>
    <filter
       style="color-interpolation-filters:sRGB"
       id="filter1409"
       x="-0.11086383"
       width="1.2217277"
       y="-0.26312754"
       height="1.5262551">
      <feGaussianBlur
         stdDeviation="2.7431761"
         id="feGaussianBlur1411" />
    </filter>
  </defs>
  <metadata
     id="metadata4944">
    <rdf:RDF>
      <cc:Work
         rdf:about="">
        <dc:format>image/svg+xml</dc:format>
        <dc:type
           rdf:resource="http://purl.org/dc/dcmitype/StillImage" />
        <dc:title></dc:title>
      </cc:Work>
    </rdf:RDF>
  </metadata>
  <g
     id="layer1"
     transform="matrix(0.75,0,0,0.75,-51.366965,-70.916969)">
    <g
       id="g1124"
       transform="matrix(0.36928003,0,0,0.36671323,66.685749,-3.5837818)"
       clip-path="url(#clipPath1160)">
      <path
         id="path1094"
         transform="matrix(0.26458334,0,0,0.26458334,0,263.13333)"
         d="m 6.5664062,36.900391 v 30.742187 c 1.8903798,-0.717597 3.7578068,-1.497875 5.6816408,-2.121094 3.430486,-1.111293 6.910662,-2.070733 10.425781,-2.876953 3.515119,-0.806219 7.064825,-1.458368 10.636719,-1.953125 3.571894,-0.494756 7.164814,-0.832862 10.765625,-1.009765 3.600811,-0.176904 7.208676,-0.192262 10.810547,-0.04492 2.66287,0.108927 5.314635,0.402222 7.964843,0.691406 -1.727675,-0.794377 -3.467264,-1.560916 -5.166015,-2.416016 -2.769477,-1.394069 -5.49987,-2.866021 -8.1875,-4.410156 -2.811955,-1.615563 -5.58227,-3.311787 -8.378906,-4.955078 -2.796637,-1.643291 -5.619464,-3.23486 -8.541016,-4.642578 -1.837723,-0.885491 -3.711515,-1.692994 -5.615234,-2.42383 -1.90372,-0.730836 -3.838242,-1.384455 -5.794922,-1.958985 -3.91336,-1.14906 -7.919802,-1.984142 -11.9667971,-2.498046 -0.8732172,-0.110886 -1.758278,-0.04211 -2.6347657,-0.123047 z"
         style="opacity:0.8;fill:#000000;fill-opacity:1;stroke:none;stroke-width:1;stroke-miterlimit:4;stroke-dasharray:none;filter:url(#filter1619)" />
      <path
         transform="matrix(0.26458334,0,0,0.26458334,0,263.13333)"
         id="path1096"
         d="M 71.466797,6.2773438 H 6.5664062 V 9.5664062 C 8.1295138,8.8776377 9.7413714,8.2990404 11.423828,7.9902344 c 1.944959,-0.3569868 3.940626,-0.4760235 5.916016,-0.3867188 1.97539,0.089305 3.933439,0.3801119 5.861328,0.8203125 1.927889,0.4402006 3.824807,1.0301945 5.677734,1.7207029 3.705855,1.381018 7.239918,3.154545 10.751953,4.980469 2.666459,1.386305 5.357896,2.722418 8.066407,4.019531 3.41422,-1.606256 6.780148,-3.311008 10.066406,-5.173828 3.935291,-2.230725 7.823473,-4.5531757 11.777344,-6.7480468 0.624122,-0.3464623 1.296347,-0.6055277 1.925781,-0.9453124 z"
         style="opacity:0.8;fill:#000000;fill-opacity:1;stroke:none;stroke-width:1;stroke-miterlimit:4;stroke-dasharray:none;filter:url(#filter1905)" />
      <path
         style="opacity:0.8;fill:#0d52be;fill-opacity:1;stroke:none;stroke-width:0.26458335;stroke-miterlimit:4;stroke-dasharray:none"
         d="M 18.908924,264.79421 H 1.7373617 v 0.87023 c 0.4135722,-0.18223 0.8400429,-0.33532 1.2851929,-0.41703 0.5146037,-0.0944 1.042624,-0.12594 1.5652792,-0.10232 0.5226553,0.0236 1.0407225,0.10057 1.5508098,0.21704 0.5100873,0.11647 1.0119802,0.27258 1.5022338,0.45527 0.9805075,0.3654 1.9155617,0.83464 2.8447876,1.31775 0.705501,0.3668 1.41761,0.72031 2.134237,1.0635 0.903346,-0.42498 1.793914,-0.87603 2.663403,-1.3689 1.041213,-0.59022 2.069961,-1.2047 3.116089,-1.78543 0.165133,-0.0917 0.342992,-0.16021 0.50953,-0.25011 z"
         id="path1098" />
      <path
         style="opacity:0.8;fill:#64baff;fill-opacity:1;stroke:none;stroke-width:0.26458335;stroke-miterlimit:4;stroke-dasharray:none"
         d="m 18.908924,264.79421 c -0.166538,0.0899 -0.344397,0.15845 -0.50953,0.25011 -1.046128,0.58073 -2.074876,1.19521 -3.116089,1.78543 -0.869489,0.49287 -1.760057,0.94392 -2.663403,1.3689 0.227253,0.10884 0.446263,0.2357 0.676961,0.33693 0.563503,0.24727 1.138059,0.46715 1.721859,0.65888 0.583799,0.19173 1.176506,0.35546 1.775602,0.49196 0.599097,0.1365 1.204967,0.24552 1.81436,0.32711 0.609393,0.0816 1.222407,0.13578 1.837097,0.16278 0.61469,0.027 1.230895,0.0268 1.845882,-5.3e-4 0.614987,-0.0273 1.228881,-0.0815 1.839164,-0.16278 0.610284,-0.0812 1.216881,-0.18964 1.817461,-0.32453 0.600578,-0.13488 1.194894,-0.29651 1.780768,-0.48472 0.651799,-0.20939 1.293416,-0.45041 1.921849,-0.72192 0.62843,-0.27152 1.243798,-0.57326 1.843297,-0.90382 0.312795,-0.17248 0.608324,-0.37381 0.91209,-0.56173 v -2.22207 z"
         id="path1100" />
      <path
         id="path1102"
         transform="matrix(0.26458334,0,0,0.26458334,0,263.13333)"
         d="M 15.855469,7.5761719 C 14.36965,7.5887093 12.882547,7.7224943 11.423828,7.9902344 9.7413715,8.2990404 8.1295139,8.8776377 6.5664062,9.5664062 v 16.6249998 2.228516 c 0.6765627,-0.0063 1.3529917,0.03739 2.0292969,0.01758 0.819416,-0.024 1.6345319,-0.120307 2.4531249,-0.164062 1.733045,-0.09263 3.467403,-0.168529 5.19336,-0.34961 2.541201,-0.266613 5.07249,-0.627952 7.585937,-1.085937 2.513447,-0.457986 5.00953,-1.01123 7.480469,-1.660157 2.470938,-0.648926 4.916401,-1.39494 7.330078,-2.234375 2.392523,-0.832077 4.753037,-1.754233 7.070312,-2.777343 0.682292,-0.301242 1.313976,-0.704251 1.988282,-1.021485 C 44.988755,17.847418 42.297318,16.511305 39.630859,15.125 36.118824,13.299076 32.584761,11.525549 28.878906,10.144531 27.025979,9.4540228 25.129061,8.8640287 23.201172,8.4238281 21.273283,7.9836275 19.315234,7.6928203 17.339844,7.6035156 16.845996,7.5811894 16.350742,7.5719927 15.855469,7.5761719 Z"
         style="opacity:0.8;fill:#000000;fill-opacity:0.99775409;stroke:none;stroke-width:1;stroke-miterlimit:4;stroke-dasharray:none;filter:url(#filter1779)" />
      <path
         style="opacity:0.8;fill:#64baff;fill-opacity:1;stroke:none;stroke-width:0.26458335;stroke-miterlimit:4;stroke-dasharray:none"
         d="m 4.1950929,265.13786 c -0.3931229,0.003 -0.7865856,0.0387 -1.1725383,0.10955 -0.44515,0.0817 -0.8716207,0.2348 -1.2851929,0.41703 v 4.3987 0.58963 c 0.1790072,-0.002 0.357979,0.01 0.5369181,0.005 0.2168039,-0.006 0.4324699,-0.0318 0.649056,-0.0434 0.4585348,-0.0245 0.9174171,-0.0446 1.3740765,-0.0925 0.6723595,-0.0705 1.3420964,-0.16615 2.0071126,-0.28732 0.6650162,-0.12118 1.3254382,-0.26756 1.9792075,-0.43925 0.653769,-0.1717 1.3007978,-0.36908 1.9394166,-0.59118 0.633022,-0.22015 1.257574,-0.46414 1.870687,-0.73484 0.180523,-0.0797 0.347656,-0.18633 0.526066,-0.27027 -0.716627,-0.34319 -1.428736,-0.6967 -2.134237,-1.0635 -0.9292259,-0.48311 -1.8642801,-0.95235 -2.8447876,-1.31775 -0.4902536,-0.18269 -0.9921465,-0.3388 -1.5022338,-0.45527 -0.5100873,-0.11647 -1.0281545,-0.19341 -1.5508098,-0.21704 -0.1306639,-0.006 -0.2616999,-0.008 -0.3927409,-0.007 z"
         id="path1104" />
      <path
         style="opacity:0.8;fill:#3689e6;fill-opacity:1;stroke:none;stroke-width:0.26458335;stroke-miterlimit:4;stroke-dasharray:none"
         d="m 32.406292,267.0163 c -0.303766,0.18791 -0.599295,0.38924 -0.91209,0.56172 -0.599499,0.33057 -1.214867,0.63231 -1.843297,0.90382 -0.628433,0.27151 -1.27005,0.51253 -1.921849,0.72192 -0.585874,0.18822 -1.18019,0.34984 -1.780768,0.48473 -0.60058,0.13488 -1.207177,0.24328 -1.817461,0.32452 -0.610283,0.0812 -1.224177,0.1355 -1.839164,0.16278 -0.614987,0.0273 -1.231192,0.0275 -1.845882,5.3e-4 -0.61469,-0.027 -1.227704,-0.0812 -1.837097,-0.16278 -0.609393,-0.0816 -1.215263,-0.19061 -1.81436,-0.32711 -0.599096,-0.1365 -1.191803,-0.30023 -1.775602,-0.49196 -0.5838,-0.19173 -1.158356,-0.41161 -1.721859,-0.65887 -0.230698,-0.10123 -0.449708,-0.2281 -0.676961,-0.33693 -0.17841,0.0839 -0.345543,0.19056 -0.526066,0.27026 -0.613113,0.2707 -1.237665,0.51469 -1.870687,0.73484 -0.6386188,0.2221 -1.2856476,0.41949 -1.9394166,0.59118 -0.6537693,0.1717 -1.3141913,0.31808 -1.9792075,0.43925 -0.6650162,0.12118 -1.3347531,0.21678 -2.0071126,0.28732 -0.4566594,0.0479 -0.9155417,0.068 -1.3740765,0.0925 -0.2165861,0.0116 -0.4322521,0.0371 -0.649056,0.0434 -0.1789391,0.005 -0.3579109,-0.006 -0.5369181,-0.005 v 2.24379 c 0.231904,0.0214 0.4660764,0.003 0.6971151,0.0326 1.0707675,0.13597 2.1308053,0.35692 3.1662151,0.66094 0.517705,0.15201 1.0295473,0.32495 1.5332399,0.51831 0.5036923,0.19337 0.9994664,0.40702 1.4856973,0.64131 0.772994,0.37246 1.5198669,0.79356 2.2598109,1.22835 0.739943,0.43478 1.472922,0.88358 2.216919,1.31103 0.711102,0.40855 1.433518,0.798 2.166276,1.16685 0.449461,0.22625 0.909727,0.42906 1.366841,0.63924 0.247263,0.027 0.496512,0.0316 0.743107,0.0646 1.52054,0.20329 3.024914,0.51577 4.53099,0.81287 0.753038,0.14856 1.50624,0.29332 2.262395,0.41858 0.756154,0.12527 1.515172,0.23098 2.27893,0.30179 0.763757,0.0708 1.532695,0.10604 2.2996,0.0904 0.766911,-0.0156 1.531766,-0.0821 2.287201,-0.21498 0.468289,-0.0824 0.918446,-0.24175 1.374593,-0.37827 v -8.55814 z"
         id="path1106" />
      <path
         id="path1108"
         transform="matrix(0.26458334,0,0,0.26458334,0,263.13333)"
         d="m 62.851562,60.328125 c 1.088958,0.500697 2.155873,1.047913 3.25586,1.523437 2.845162,1.229965 5.727893,2.373968 8.642578,3.425782 2.914685,1.051814 5.861799,2.01147 8.839844,2.871094 3.532343,1.019622 7.140407,1.894856 10.783203,2.5625 3.642796,0.667642 7.321013,1.127008 10.994143,1.316406 3.67312,0.189398 7.3415,0.10847 10.96484,-0.306641 1.81167,-0.207555 3.61229,-0.498502 5.39649,-0.880859 0.25323,-0.05427 0.49938,-0.145153 0.75195,-0.203125 v -6.169922 c -1.72402,0.515968 -3.4254,1.118328 -5.19531,1.429687 -2.85519,0.502278 -5.74598,0.753516 -8.64454,0.8125 -2.89854,0.05898 -5.80476,-0.07415 -8.691401,-0.341796 -2.886646,-0.26765 -5.755376,-0.667177 -8.613281,-1.140626 -2.857907,-0.473447 -5.704654,-1.020564 -8.550782,-1.582031 -5.692255,-1.122933 -11.378078,-2.303932 -17.125,-3.072265 C 64.728141,60.44766 63.7861,60.430099 62.851562,60.328125 Z"
         style="opacity:0.8;fill:#000000;fill-opacity:0.99894666;stroke:none;stroke-width:1;stroke-miterlimit:4;stroke-dasharray:none;filter:url(#filter1589)" />
      <path
         style="opacity:0.8;fill:#3689e6;fill-opacity:1;stroke:none;stroke-width:0.26458335;stroke-miterlimit:4;stroke-dasharray:none"
         d="m 16.629476,279.09515 c 0.28812,0.13247 0.570408,0.27726 0.861447,0.40307 0.752782,0.32543 1.515505,0.62812 2.286682,0.90641 0.771177,0.27829 1.550934,0.5322 2.338875,0.75964 0.934599,0.26978 1.889233,0.50135 2.853056,0.678 0.963823,0.17664 1.937018,0.29818 2.908867,0.3483 0.971846,0.0501 1.942439,0.0287 2.901114,-0.0811 0.479338,-0.0549 0.955752,-0.13189 1.427821,-0.23306 0.067,-0.0144 0.132128,-0.0384 0.198954,-0.0537 v -1.63246 c -0.456147,0.13652 -0.906304,0.29589 -1.374593,0.37827 -0.755435,0.1329 -1.52029,0.19937 -2.287201,0.21498 -0.766905,0.0156 -1.535843,-0.0196 -2.2996,-0.0904 -0.763758,-0.0708 -1.522776,-0.17652 -2.27893,-0.30179 -0.756155,-0.12526 -1.509357,-0.27002 -2.262395,-0.41858 -1.506076,-0.29711 -3.01045,-0.60958 -4.53099,-0.81287 -0.246595,-0.033 -0.495844,-0.0376 -0.743107,-0.0646 z"
         id="path1110" />
      <path
         style="opacity:0.8;fill:#64baff;fill-opacity:1;stroke:none;stroke-width:0.26458335;stroke-miterlimit:4;stroke-dasharray:none"
         d="m 1.7373617,272.89656 v 8.13387 c 0.500163,-0.18986 0.9942531,-0.39631 1.5032675,-0.56121 0.9076494,-0.29403 1.828446,-0.54788 2.7584879,-0.76119 0.930042,-0.21331 1.869235,-0.38586 2.8142987,-0.51677 0.9450636,-0.1309 1.8956902,-0.22036 2.8484052,-0.26716 0.952714,-0.0468 1.907295,-0.0509 2.86029,-0.0119 0.704551,0.0288 1.406164,0.10642 2.107365,0.18294 -0.457114,-0.21018 -0.91738,-0.413 -1.366841,-0.63924 -0.732758,-0.36885 -1.455174,-0.7583 -2.166276,-1.16685 -0.743997,-0.42746 -1.476976,-0.87625 -2.216919,-1.31104 -0.739944,-0.43478 -1.4868169,-0.85589 -2.2598109,-1.22834 -0.4862309,-0.23429 -0.982005,-0.44794 -1.4856973,-0.64131 -0.5036926,-0.19337 -1.0155349,-0.3663 -1.5332399,-0.51831 -1.0354098,-0.30403 -2.0954476,-0.52497 -3.1662151,-0.66095 -0.2310387,-0.0293 -0.4652111,-0.0111 -0.6971151,-0.0325 z"
         id="path1112" />
      <path
         id="path1114"
         d="m 32.406292,281.82263 c -0.06683,0.0153 -0.131953,0.0394 -0.198954,0.0537 -0.472069,0.10117 -0.948483,0.17815 -1.427821,0.23306 -0.958675,0.10983 -1.929268,0.13125 -2.901114,0.0811 -0.971849,-0.0501 -1.945044,-0.17166 -2.908867,-0.3483 -0.963823,-0.17665 -1.918457,-0.40822 -2.853056,-0.678 -0.787941,-0.22744 -1.567698,-0.48135 -2.338875,-0.75964 -0.771177,-0.27829 -1.5339,-0.58098 -2.286682,-0.90641 -0.291039,-0.12581 -0.573327,-0.2706 -0.861447,-0.40307 -0.701201,-0.0765 -1.402814,-0.15412 -2.107365,-0.18294 -0.952995,-0.039 -1.907576,-0.0349 -2.86029,0.0119 -0.952715,0.0468 -1.9033416,0.13626 -2.8484052,0.26716 -0.9450637,0.13091 -1.8842567,0.30346 -2.8142987,0.51677 -0.9300419,0.21331 -1.8508385,0.46716 -2.7584879,0.76119 -0.5090144,0.1649 -1.0031045,0.37134 -1.5032675,0.56121 v 3.31556 c 0.2005563,-0.0121 0.4001259,-0.0367 0.6009969,-0.0413 0.6263509,-0.0146 1.2509163,0.007 1.8712036,0.0625 0.6202873,0.0556 1.2363112,0.14542 1.8469158,0.26613 0.6106047,0.12071 1.2155062,0.27233 1.8128094,0.4532 0.597303,0.18087 1.1874681,0.3908 1.7678507,0.62684 0.5803829,0.23604 1.1511639,0.49823 1.7110069,0.78445 0.559843,0.28621 1.10866,0.59619 1.644344,0.92759 0.535684,0.33139 1.058406,0.68417 1.566313,1.05575 0.507906,0.37158 1.000919,0.76214 1.477429,1.16892 0.481085,0.41068 0.9456,0.84245 1.41335,1.2702 0.848534,0.0554 1.697967,0.10432 2.548165,0.0775 1.090549,-0.0344 2.179383,-0.13549 3.258716,-0.30127 1.079333,-0.16579 2.149438,-0.39602 3.201872,-0.68885 1.052436,-0.29283 2.087634,-0.64852 3.097485,-1.06402 0.977114,-0.40203 1.927667,-0.86586 2.850473,-1.37873 z"
         style="opacity:0.8;fill:#000000;fill-opacity:1;stroke:none;stroke-width:0.26458335;stroke-miterlimit:4;stroke-dasharray:none" />
      <path
         style="opacity:0.8;fill:#0d52bf;fill-opacity:1;stroke:none;stroke-width:1;stroke-miterlimit:4;stroke-dasharray:none;filter:url(#filter1571)"
         d="m 122.48047,70.636719 c -0.25257,0.05797 -0.49872,0.148855 -0.75195,0.203125 -1.7842,0.382357 -3.58482,0.673304 -5.39649,0.880859 -3.62334,0.415111 -7.29172,0.496039 -10.96484,0.306641 -3.67313,-0.189398 -7.351347,-0.648764 -10.994143,-1.316406 -3.642796,-0.667643 -7.25086,-1.542878 -10.783203,-2.5625 -2.978045,-0.859623 -5.925159,-1.81928 -8.839844,-2.871094 -2.914685,-1.051814 -5.797416,-2.195818 -8.642578,-3.425782 -1.099987,-0.475524 -2.166903,-1.02274 -3.25586,-1.523437 -2.650208,-0.289184 -5.301973,-0.582479 -7.964843,-0.691406 -3.601871,-0.147338 -7.209736,-0.131982 -10.810547,0.04492 -3.600811,0.176903 -7.193731,0.515009 -10.765625,1.009765 -3.571894,0.494757 -7.1216,1.146906 -10.636719,1.953125 -3.515119,0.80622 -6.995295,1.76566 -10.425781,2.876953 -1.923834,0.623219 -3.7912611,1.403497 -5.6816408,2.121094 v 12.53125 c 0.7580082,-0.04559 1.5122868,-0.138575 2.2714844,-0.15625 2.3673104,-0.05511 4.7278724,0.02633 7.0722654,0.236328 2.344393,0.209998 4.672672,0.549619 6.980469,1.00586 2.307797,0.45624 4.594039,1.029278 6.851563,1.71289 2.257523,0.683613 4.488068,1.477026 6.68164,2.369141 2.193572,0.892114 4.350855,1.883098 6.466797,2.964844 2.115942,1.081746 4.19021,2.253352 6.214844,3.505859 2.024633,1.252507 4.000274,2.585836 5.919922,3.990234 1.919647,1.404398 3.783001,2.88055 5.583984,4.417968 1.818274,1.55218 3.573921,3.18406 5.341797,4.80078 3.207057,0.20947 6.41751,0.39428 9.630859,0.29297 4.12176,-0.12994 8.237037,-0.51208 12.316407,-1.13867 4.079369,-0.62659 8.123857,-1.49677 12.101562,-2.60351 3.97771,-1.10675 7.89027,-2.451085 11.70703,-4.021491 3.69303,-1.519495 7.28567,-3.272547 10.77344,-5.210937 z"
         id="path1116"
         transform="matrix(0.26458334,0,0,0.26458334,0,263.13333)" />
      <path
         transform="matrix(0.26458334,0,0,0.26458334,0,263.13333)"
         id="path1118"
         d="m 6.5664062,104.4668 c 1.2967405,-0.90669 2.6132119,-1.7935 4.0410158,-2.47852 2.227234,-1.06856 4.551366,-1.844 6.9375,-2.374999 2.386134,-0.531 4.832626,-0.816579 7.302734,-0.902343 2.470108,-0.08576 4.964204,0.02778 7.44336,0.294921 2.479155,0.267143 4.944145,0.687121 7.357422,1.214841 3.809759,0.8331 7.561856,1.91558 11.365234,2.77735 4.028715,0.91282 8.109969,1.55821 12.214844,1.9414 0.904688,0.0845 1.816025,0.0228 2.722656,0.082 -1.767876,-1.61672 -3.523523,-3.2486 -5.341797,-4.80078 -1.800983,-1.537416 -3.664337,-3.013568 -5.583984,-4.417966 -1.919648,-1.404398 -3.895289,-2.737727 -5.919922,-3.990234 -2.024634,-1.252507 -4.098902,-2.424113 -6.214844,-3.505859 -2.115942,-1.081746 -4.273225,-2.07273 -6.466797,-2.964844 -2.193572,-0.892115 -4.424117,-1.685528 -6.68164,-2.369141 -2.257524,-0.683612 -4.543766,-1.25665 -6.851563,-1.71289 -2.307797,-0.456241 -4.636076,-0.795862 -6.980469,-1.00586 -2.344393,-0.209998 -4.704955,-0.291442 -7.0722654,-0.236328 -0.7591976,0.01767 -1.5134762,0.110665 -2.2714844,0.15625 z"
         style="opacity:0.8;fill:#000000;fill-opacity:0.99599998;stroke:none;stroke-width:1;stroke-miterlimit:4;stroke-dasharray:none;filter:url(#filter1409)" />
      <path
         style="opacity:0.8;fill:#64baff;fill-opacity:1;stroke:none;stroke-width:0.26458335;stroke-miterlimit:4;stroke-dasharray:none"
         d="m 1.7373617,290.7735 c 0.3430959,-0.23989 0.6914123,-0.47453 1.0691854,-0.65577 0.5892891,-0.28272 1.2042157,-0.48789 1.835547,-0.62839 0.6313313,-0.14049 1.2786323,-0.21605 1.9321817,-0.23874 0.6535494,-0.0227 1.3134457,0.007 1.9693891,0.078 0.6559431,0.0707 1.3081384,0.1818 1.9466511,0.32143 1.007999,0.22042 2.000741,0.50683 3.007052,0.73484 1.065931,0.24152 2.145762,0.41227 3.231844,0.51366 0.239365,0.0224 0.48049,0.006 0.720369,0.0217 -0.46775,-0.42776 -0.932265,-0.85953 -1.41335,-1.27021 -0.47651,-0.40678 -0.969523,-0.79734 -1.477429,-1.16892 -0.507907,-0.37158 -1.030629,-0.72436 -1.566313,-1.05575 -0.535684,-0.33139 -1.084501,-0.64138 -1.644344,-0.92759 -0.559843,-0.28621 -1.130624,-0.54841 -1.7110069,-0.78445 -0.5803826,-0.23604 -1.1705477,-0.44596 -1.7678507,-0.62684 -0.5973032,-0.18087 -1.2022047,-0.33248 -1.8128094,-0.4532 -0.6106046,-0.12071 -1.2266285,-0.21057 -1.8469158,-0.26613 -0.6202873,-0.0556 -1.2448527,-0.0771 -1.8712036,-0.0625 -0.200871,0.005 -0.4004406,0.0293 -0.6009969,0.0413 z"
         id="path1120" />
      <path
         style="opacity:0.8;fill:#5fb1f3;fill-opacity:0.97591804;stroke:none;stroke-width:0.26458335;stroke-miterlimit:4;stroke-dasharray:none"
         d="m 32.406292,287.56491 c -0.922806,0.51287 -1.873359,0.9767 -2.850473,1.37873 -1.009851,0.4155 -2.045049,0.77119 -3.097485,1.06402 -1.052434,0.29283 -2.122539,0.52306 -3.201872,0.68885 -1.079333,0.16578 -2.168167,0.26689 -3.258716,0.30127 -0.850198,0.0268 -1.699631,-0.0221 -2.548165,-0.0775 -0.239879,-0.0157 -0.481004,5.3e-4 -0.720369,-0.0217 -1.086082,-0.10139 -2.165913,-0.27215 -3.231844,-0.51366 -1.006311,-0.22801 -1.999053,-0.51442 -3.007052,-0.73484 -0.638513,-0.13963 -1.290708,-0.25075 -1.9466511,-0.32143 -0.6559434,-0.0707 -1.3158397,-0.10072 -1.9693891,-0.078 -0.6535494,0.0227 -1.3008504,0.0983 -1.9321817,0.23874 -0.6313313,0.1405 -1.2462579,0.34566 -1.835547,0.62839 -0.3777731,0.18124 -0.7260895,0.41588 -1.0691854,0.65577 v 4.68964 h 23.8595263 6.809404 z"
         id="path1122" />
    </g>
  </g>
</svg>
